<svg width="259" height="74" viewBox="0 0 259 74" fill="none" xmlns="http://www.w3.org/2000/svg">
<g clip-path="url(#clip0_0_5)">
<path d="M37.2265 0C16.6674 0 0 16.5659 0 37C0 57.4341 16.6674 74 37.2265 74C57.7856 74 74.453 57.4341 74.453 37C74.453 16.5659 57.7856 0 37.2265 0ZM45.0852 28.9004L45.1091 28.9242C48.8916 32.8296 51.4405 37.1902 52.9064 42.2537C53.3096 43.6461 52.9474 44.6072 51.8301 45.1064C51.5499 45.232 51.2697 45.2932 50.9929 45.2932C50.7572 45.2932 50.5248 45.249 50.3027 45.1539C49.7287 44.9162 49.2743 44.3966 48.9907 43.6495C48.7993 43.1469 48.6182 42.6307 48.444 42.1348C47.993 40.8511 47.5248 39.5267 46.8859 38.3448C43.3973 31.8889 38.091 27.5556 31.1206 25.4636C31.0352 25.4364 30.9463 25.4127 30.8575 25.3923C30.6183 25.3278 30.345 25.2564 30.0853 25.1308C29.1457 24.6723 28.7391 23.8301 28.968 22.8215C29.1935 21.8264 29.9213 21.2593 30.9703 21.2593C30.9873 21.2593 31.001 21.2593 31.0181 21.2593C31.3769 21.2661 31.7117 21.3578 32.009 21.4427C36.7345 22.757 41.1251 25.2632 45.0784 28.897L45.0852 28.9004ZM47.3608 45.7211C47.108 46.1727 46.6775 46.4852 46.1103 46.6312C45.9463 46.672 45.7481 46.7059 45.5363 46.7059C44.8221 46.7059 43.9372 46.3391 43.4656 44.7362C42.5192 41.5337 40.9406 38.7863 38.7812 36.5789L38.7641 36.5619C36.2732 33.7975 33.2151 31.9127 29.4122 30.7988C27.2322 30.1604 27.3962 28.717 27.5705 28.1261C27.7311 27.5793 28.0489 27.1616 28.4965 26.9239C29.0466 26.6318 29.7539 26.6149 30.6012 26.8764C39.0716 29.4947 44.7265 35.1016 47.4155 43.5408C47.6957 44.4238 47.6786 45.1607 47.3643 45.7279L47.3608 45.7211ZM16.2163 33.39C16.2163 34.6126 15.2152 35.6042 13.9885 35.6042C13.394 35.6042 12.8337 35.3733 12.4134 34.9556C11.9931 34.5379 11.7608 33.9809 11.7608 33.39V13.9034C11.7608 13.3125 11.9897 12.759 12.41 12.3413C12.8371 11.9168 13.3974 11.6892 13.9885 11.6892H33.5944C34.8245 11.6892 35.8222 12.6843 35.8222 13.9034C35.8222 14.4944 35.5898 15.0513 35.1696 15.469C34.7493 15.8867 34.1889 16.1177 33.5944 16.1177H16.2163V33.3866V33.39ZM36.3962 48.6451C36.1399 49.0628 35.7333 49.3447 35.2174 49.4669C35.0158 49.5145 34.8244 49.5382 34.6399 49.5382C33.7242 49.5382 33.0238 48.9677 32.6787 47.9149C31.6058 44.6649 29.4771 42.5729 26.1696 41.5134C24.9976 41.1364 24.4407 40.2161 24.6798 39.0512C24.7892 38.5248 25.0967 38.0799 25.5477 37.8015C26.0568 37.489 26.6924 37.4143 27.3382 37.5841C29.4156 38.1377 31.4657 39.2618 32.9623 40.6677L32.9964 40.7017C35.0055 42.9023 36.0784 44.7023 36.5807 46.7127C36.7686 47.47 36.7037 48.1425 36.3928 48.6485L36.3962 48.6451ZM27.9019 36.1883C25.8245 35.5601 25.968 34.1541 26.1252 33.5768C26.2755 33.03 26.5899 32.6089 27.0375 32.361C27.5876 32.0553 28.2914 32.0248 29.1252 32.2693C32.1354 33.1523 34.7288 34.6907 37.2812 37.1223L37.2914 37.1324C38.9076 38.7422 41.0431 41.442 42.0306 45.1573C42.4098 46.5803 41.911 47.684 40.7288 48.0406C40.5101 48.1051 40.2982 48.1391 40.0966 48.1391C39.1912 48.1391 38.4566 47.4972 38.0636 46.3324C36.28 41.0345 32.9589 37.7166 27.9053 36.1917L27.9019 36.1883ZM62.6888 60.0966C62.6888 60.6841 62.4599 61.241 62.0396 61.6587C61.6091 62.0832 61.0521 62.3108 60.4576 62.3108H40.8518C39.6217 62.3108 38.624 61.3157 38.624 60.0966C38.624 59.5056 38.8563 58.9487 39.2766 58.5276C39.6969 58.1099 40.2572 57.8789 40.8518 57.8789H58.2264V40.61C58.2264 39.3874 59.2275 38.3958 60.4542 38.3958C61.0487 38.3958 61.6091 38.6267 62.0293 39.0444C62.4496 39.4621 62.682 40.0191 62.682 40.61V60.0966H62.6888Z" fill="white"/>
<path d="M112.53 2.83569V32.9757L104.6 32.9553V18.9126L98.3162 24.8863L92.4734 19.1435L92.4529 32.9757H84.6488V2.83569L98.3128 14.4468L112.527 2.83569H112.53Z" fill="white"/>
<path d="M131.617 32.327C131.166 32.524 130.838 32.6564 130.626 32.7244C129.136 33.2983 127.575 33.5836 125.945 33.5836C123.792 33.5836 121.763 33.0877 119.849 32.0961C117.936 31.0909 116.419 29.7223 115.294 27.9869C114.157 26.2277 113.586 24.2648 113.586 22.0981C113.586 20.4646 113.917 18.9398 114.577 17.5304C115.236 16.1346 116.145 14.9189 117.297 13.8831C118.435 12.8507 119.757 12.0594 121.26 11.516C122.764 10.9421 124.325 10.6568 125.941 10.6568C127.558 10.6568 129.105 10.9353 130.622 11.4956C132.14 12.056 133.462 12.8507 134.586 13.8865C135.768 14.9494 136.68 16.1652 137.326 17.5338C137.986 18.9466 138.317 20.468 138.317 22.1015L138.297 33.0198L131.613 32.9553V32.327H131.617ZM121.093 19.3949C120.574 20.2201 120.314 21.1201 120.314 22.0981C120.314 23.5788 120.878 24.8591 122.002 25.9323C123.112 26.9952 124.428 27.525 125.945 27.525C127.462 27.525 128.798 26.9952 129.908 25.9323C131.032 24.8557 131.596 23.5788 131.596 22.0981C131.596 21.1201 131.337 20.2201 130.817 19.3949C130.298 18.5696 129.601 17.9142 128.73 17.4251C127.872 16.9497 126.942 16.712 125.945 16.712C124.947 16.712 124.055 16.9497 123.184 17.4251C122.313 17.9142 121.616 18.5696 121.096 19.3949H121.093Z" fill="white"/>
<path d="M162.932 22.2849L162.912 33.6447V35.1967C162.912 37.9475 161.927 40.3044 159.959 42.2605C159.044 43.1672 157.824 43.8872 156.29 44.4204C154.855 44.923 153.437 45.1743 152.029 45.1743H150.847C147.642 45.103 145.089 44.1317 143.193 42.2605C141.918 40.9666 141.146 39.8289 140.876 38.8542C140.876 38.8475 140.876 38.8407 140.883 38.8373L147.286 35.1458C147.286 35.1458 147.307 35.1458 147.307 35.1559C147.368 36.0593 147.679 36.8472 148.243 37.5264C149.101 38.5622 150.42 39.1565 151.766 39.092C152.565 39.0546 153.3 38.8033 153.97 38.3414C154.687 37.8524 155.2 37.2241 155.511 36.4566L155.531 36.3717L155.572 36.2665C155.6 36.168 155.627 36.0695 155.658 35.9744C155.712 35.808 155.75 35.6382 155.764 35.4718V35.4073L155.784 35.3427L155.805 35.2578V35.1322H155.825V32.9315L155.658 33.0164L155.49 33.081C154.082 33.6549 152.606 33.9402 151.062 33.9402C149.008 33.9402 147.092 33.4307 145.305 32.4085C143.518 31.4169 142.086 30.0279 141.003 28.2382C139.92 26.4485 139.38 24.4584 139.38 22.2645C139.38 20.6005 139.698 19.0654 140.33 17.6527C140.934 16.2569 141.792 15.0106 142.903 13.9204C143.986 12.888 145.236 12.0832 146.658 11.5092C148.093 10.9353 149.562 10.65 151.065 10.65C153.679 10.65 155.62 10.9862 156.884 11.6553C160.92 13.3737 162.935 16.9157 162.935 22.2815L162.932 22.2849ZM147.645 25.9934C148.756 27.0699 150.033 27.6065 151.482 27.6065C152.931 27.6065 154.229 27.0699 155.34 25.9934C156.437 24.9304 156.983 23.6535 156.983 22.1592C156.983 21.2084 156.73 20.3152 156.225 19.4764C155.719 18.6375 155.043 17.9821 154.202 17.5067C153.344 17.0312 152.439 16.7935 151.482 16.7935C150.525 16.7935 149.634 17.0312 148.803 17.5067C147.959 17.9821 147.279 18.6375 146.757 19.4764C146.251 20.3152 145.998 21.2084 145.998 22.1592C145.998 23.6535 146.548 24.9338 147.642 25.9934H147.645Z" fill="white"/>
<path d="M173.306 16.712C171.59 16.7833 170.733 17.9685 170.733 20.2744V32.9553H163.984V20.2744C163.984 14.1683 167.09 10.9625 173.306 10.6534H173.685C179.9 10.9625 183.006 14.1683 183.006 20.2744V32.9553H176.258V20.2744C176.258 17.9685 175.4 16.7799 173.685 16.712H173.306Z" fill="white"/>
<path d="M206.815 17.5474C207.447 18.9602 207.764 20.468 207.764 22.0743V22.2645C207.764 22.3358 207.758 22.4106 207.744 22.4955L207.703 22.852H205.089V22.8928H190.581C190.749 24.0678 191.265 25.0799 192.122 25.9323C193.205 26.9952 194.47 27.525 195.918 27.525C197.367 27.525 198.645 26.9952 199.714 25.9323L199.755 25.8915L199.817 25.8066L199.882 25.7421L199.923 25.6776L203.551 30.8328C202.509 31.6716 201.457 32.3067 200.387 32.7414C198.952 33.3017 197.463 33.5802 195.918 33.5802C193.824 33.5802 191.876 33.0844 190.075 32.0927C188.234 31.0875 186.778 29.7121 185.709 27.9631C184.612 26.2175 184.065 24.2546 184.065 22.0743C184.065 20.4408 184.383 18.9296 185.015 17.5474C185.647 16.1516 186.519 14.9358 187.629 13.9C188.753 12.8371 190.017 12.0356 191.425 11.4888C192.874 10.9285 194.37 10.65 195.918 10.65C197.466 10.65 198.956 10.9285 200.387 11.4888C201.809 12.0322 203.08 12.8303 204.204 13.8797C205.315 14.8985 206.186 16.1211 206.818 17.5474H206.815ZM195.911 16.7086C194.968 16.7086 194.083 16.9463 193.253 17.4218C192.747 17.7308 192.255 18.1621 191.777 18.7224H200.042C199.564 18.1621 199.072 17.7308 198.566 17.4218C197.736 16.9463 196.851 16.7086 195.908 16.7086H195.911Z" fill="white"/>
<path d="M213.266 17.2146H208.817L210.334 11.4719H213.266V3.21268L219.993 3.25343V11.4685H224.463L222.966 17.2112H219.993V24.3158C219.993 26.2175 221.189 27.165 223.578 27.165C224.35 27.165 224.941 27.0734 225.348 26.8934L223.407 33.5598C223.055 33.6141 222.71 33.6447 222.375 33.6447C220.366 33.6447 218.692 33.3221 217.356 32.6802C216.006 32.0384 214.988 31.0671 214.297 29.7664C213.607 28.4793 213.266 26.839 213.266 24.8421V17.2146Z" fill="white"/>
<path d="M232.943 7.21662C232.632 7.73282 232.212 8.15393 231.679 8.47316C231.146 8.79579 230.555 8.9554 229.909 8.9554C229.263 8.9554 228.679 8.80258 228.16 8.49354C227.627 8.17091 227.203 7.74641 226.895 7.21662C226.571 6.65627 226.41 6.06536 226.41 5.4337C226.41 4.80203 226.564 4.20432 226.875 3.67454C227.213 3.13117 227.64 2.70327 228.16 2.39762C228.679 2.09198 229.263 1.93576 229.909 1.93576C230.555 1.93576 231.146 2.08858 231.679 2.39762C232.198 2.70666 232.622 3.13117 232.943 3.67454C233.251 4.20432 233.408 4.79184 233.408 5.4337C233.408 6.07555 233.254 6.69703 232.943 7.21662ZM233.387 11.5126V32.9961H226.66V11.533L233.387 11.5126Z" fill="white"/>
<path d="M251.076 17.9685C250.472 17.4659 249.812 17.0889 249.095 16.8376C248.35 16.5863 247.56 16.4607 246.734 16.4607C245.186 16.4607 243.88 16.9565 242.811 17.9481C241.728 18.9398 241.188 20.1692 241.188 21.6363C241.188 22.7807 241.42 23.8097 241.885 24.7165C242.336 25.6266 243.002 26.3432 243.887 26.8764C244.745 27.4197 245.736 27.6948 246.86 27.6948C248.517 27.6948 249.939 27.1718 251.121 26.1224L254.811 30.775C254.278 31.3354 253.533 31.8312 252.576 32.2625C251.606 32.6972 250.608 33.0164 249.583 33.227C248.558 33.4375 247.608 33.5428 246.737 33.5428C244.291 33.5428 242.131 33.0334 240.262 32.0112C238.393 30.9788 236.958 29.6204 235.96 27.9461C234.963 26.2413 234.464 24.4176 234.464 22.4751C234.464 20.7023 234.764 19.0926 235.369 17.6561C235.988 16.189 236.838 14.9325 237.922 13.8831C238.991 12.8643 240.289 12.0594 241.824 11.4719C243.341 10.8979 244.981 10.6127 246.737 10.6127C248.172 10.6127 249.57 10.8368 250.933 11.2817C252.31 11.7436 253.526 12.3922 254.582 13.231L251.08 17.9685H251.076Z" fill="white"/>
<path d="M112.441 41.9786V72.1186L104.511 72.0982V58.0555L98.2273 64.0292L92.3845 58.2865L92.364 72.1186H84.5599V41.9786L98.2239 53.5897L112.438 41.9786H112.441Z" fill="white"/>
<path d="M136.25 56.6937C136.882 58.1065 137.2 59.6143 137.2 61.2207V61.4108C137.2 61.4822 137.193 61.5569 137.179 61.6418L137.138 61.9984H134.524V62.0391H120.017C120.184 63.2141 120.7 64.2262 121.558 65.0786C122.641 66.1415 123.905 66.6713 125.354 66.6713C126.802 66.6713 128.08 66.1415 129.15 65.0786L129.191 65.0378L129.256 64.9529L129.321 64.8918L129.362 64.8273L132.99 69.9825C131.948 70.8213 130.896 71.4564 129.826 71.8911C128.391 72.4514 126.901 72.7299 125.357 72.7299C123.263 72.7299 121.315 72.2341 119.514 71.2424C117.673 70.2372 116.217 68.8618 115.148 67.1128C114.051 65.3672 113.504 63.4043 113.504 61.2241C113.504 59.5906 113.822 58.0793 114.454 56.6971C115.086 55.3013 115.957 54.0856 117.068 53.0498C118.192 51.9868 119.456 51.1853 120.864 50.6386C122.313 50.0782 123.809 49.7997 125.357 49.7997C126.905 49.7997 128.395 50.0782 129.826 50.6386C131.248 51.1819 132.519 51.98 133.643 53.0294C134.753 54.0482 135.625 55.2708 136.257 56.6971L136.25 56.6937ZM125.347 55.8549C124.404 55.8549 123.519 56.0926 122.688 56.5681C122.183 56.8771 121.691 57.3084 121.212 57.8687H129.478C128.999 57.3118 128.507 56.8771 128.002 56.5681C127.171 56.0926 126.286 55.8549 125.343 55.8549H125.347Z" fill="white"/>
<path d="M157.356 58.9147V72.1186H150.587V58.9147C150.474 56.945 149.623 55.933 148.035 55.8753H147.655C145.94 55.9296 145.082 57.1114 145.082 59.4173V72.1186H138.334V59.4173C138.334 53.3384 141.44 50.1325 147.655 49.7963H148.035C150.508 49.9356 152.49 50.5231 153.98 51.5555C155.456 50.5231 157.431 49.9356 159.905 49.7963H160.284C166.496 50.1325 169.605 53.3384 169.605 59.4173V72.1186H162.857V59.4173C162.857 57.1114 161.999 55.9296 160.284 55.8753H159.905C158.316 55.9296 157.465 56.945 157.352 58.9147H157.356Z" fill="white"/>
<path d="M176.948 71.2798C175.035 70.2745 173.517 68.8991 172.393 67.1502C171.256 65.391 170.685 63.4179 170.685 61.241C170.685 59.6075 171.016 58.0827 171.676 56.6733C172.335 55.2606 173.244 54.0414 174.396 53.0056C175.564 51.9562 176.89 51.1547 178.38 50.5944C179.897 50.0374 181.451 49.7556 183.04 49.7556C184.629 49.7556 186.204 50.034 187.721 50.5944C189.197 51.1242 190.527 51.9223 191.705 52.9852C192.874 54.0482 193.779 55.2776 194.425 56.6733C195.085 58.0861 195.416 59.6075 195.416 61.241C195.416 62.8745 195.091 64.4265 194.446 65.8087C193.8 67.2079 192.884 68.4441 191.705 69.5172C190.509 70.5802 189.18 71.3816 187.721 71.9284C186.245 72.5023 184.684 72.7876 183.04 72.7876C180.891 72.7876 178.858 72.285 176.945 71.2798H176.948ZM179.097 65.0955C180.208 66.1721 181.523 66.7087 183.04 66.7087C184.557 66.7087 185.893 66.1721 187.004 65.0955C188.128 64.019 188.692 62.7353 188.692 61.2376C188.692 60.2596 188.432 59.3596 187.913 58.5344C187.393 57.7091 186.696 57.0537 185.825 56.5647C184.967 56.0756 184.038 55.8311 183.04 55.8311C182.043 55.8311 181.151 56.0756 180.279 56.5647C179.408 57.0537 178.711 57.7091 178.192 58.5344C177.672 59.3596 177.413 60.2596 177.413 61.2376C177.413 62.7319 177.976 64.019 179.101 65.0955H179.097Z" fill="white"/>
<path d="M207.546 56.2319C207.194 55.9941 206.736 55.8617 206.176 55.8345H205.796C204.081 55.9058 203.223 57.0911 203.223 59.397V72.0982H196.475V59.397C196.475 53.2909 199.581 50.085 205.796 49.776H206.176C206.64 49.7895 207.095 49.8303 207.546 49.9016V56.2319Z" fill="white"/>
<path d="M215.138 46.3595C214.827 46.8757 214.407 47.2968 213.874 47.6161C213.341 47.9387 212.75 48.0983 212.104 48.0983C211.458 48.0983 210.874 47.9455 210.354 47.6364C209.821 47.3138 209.398 46.8893 209.09 46.3595C208.766 45.8026 208.605 45.2083 208.605 44.5766C208.605 43.9449 208.759 43.3472 209.07 42.8174C209.408 42.2741 209.835 41.8462 210.354 41.5405C210.874 41.2349 211.458 41.0787 212.104 41.0787C212.75 41.0787 213.341 41.2315 213.874 41.5405C214.393 41.8496 214.817 42.2741 215.138 42.8174C215.446 43.3472 215.603 43.9347 215.603 44.5766C215.603 45.2184 215.449 45.8399 215.138 46.3595ZM215.582 50.6555V72.139H208.854V50.6759L215.582 50.6555Z" fill="white"/>
<path d="M239.411 56.6937C240.043 58.1065 240.361 59.6143 240.361 61.2207V61.4108C240.361 61.4822 240.354 61.5569 240.341 61.6418L240.3 61.9984H237.686V62.0391H223.178C223.345 63.2141 223.861 64.2262 224.719 65.0786C225.802 66.1415 227.066 66.6713 228.515 66.6713C229.964 66.6713 231.242 66.1415 232.311 65.0786L232.352 65.0378L232.414 64.9529L232.478 64.8918L232.519 64.8273L236.148 69.9825C235.106 70.8213 234.054 71.4564 232.984 71.8911C231.549 72.4514 230.059 72.7299 228.515 72.7299C226.42 72.7299 224.473 72.2341 222.672 71.2424C220.83 70.2372 219.375 68.8618 218.305 67.1128C217.209 65.3672 216.662 63.4043 216.662 61.2241C216.662 59.5906 216.98 58.0793 217.612 56.6971C218.244 55.3013 219.115 54.0856 220.226 53.0498C221.35 51.9868 222.614 51.1853 224.022 50.6386C225.47 50.0782 226.967 49.7997 228.515 49.7997C230.063 49.7997 231.552 50.0782 232.984 50.6386C234.406 51.1819 235.677 51.98 236.801 53.0294C237.911 54.0482 238.783 55.2708 239.415 56.6971L239.411 56.6937ZM228.508 55.8549C227.565 55.8549 226.68 56.0926 225.85 56.5681C225.344 56.8771 224.852 57.3084 224.374 57.8687H232.639C232.161 57.3118 231.669 56.8771 231.163 56.5681C230.333 56.0926 229.448 55.8549 228.505 55.8549H228.508Z" fill="white"/>
<path d="M244.83 65.3502C246.166 66.6781 247.796 67.3403 249.723 67.3403C251.65 67.3403 252.74 66.7528 252.74 65.5812C252.74 64.9665 252.183 64.5114 251.073 64.2194C250.287 64.0394 249.033 63.7235 247.318 63.2753C245.927 62.9119 244.752 62.2429 243.795 61.2648C242.852 60.3003 242.384 58.8196 242.384 56.8228C242.384 55.2844 242.77 53.9871 243.542 52.9241C244.328 51.8611 245.35 51.08 246.6 50.5774C247.878 50.0612 249.279 49.8031 250.796 49.8031C251.654 49.8031 252.525 49.922 253.41 50.1597C254.367 50.4518 255.224 50.8151 255.983 51.2498C256.813 51.7117 257.544 52.2279 258.177 52.8018L254.466 56.4696C253.383 55.6579 252.204 55.2538 250.923 55.2538C249.388 55.2538 248.623 55.6817 248.623 56.5307C248.623 57.2982 249.194 57.8382 250.331 58.1438C251.582 58.48 252.839 58.7925 254.107 59.0879C255.498 59.4377 256.659 60.0796 257.585 61.0169C258.528 61.9678 259 63.462 259 65.5031C259 67.0279 258.593 68.3388 257.777 69.4425C256.96 70.5598 255.87 71.3918 254.507 71.9352C253.144 72.5091 251.729 72.7944 250.267 72.7944C249.043 72.7944 247.94 72.6959 246.956 72.5023C245.972 72.319 245.049 72.0133 244.195 71.5786C243.31 71.1473 242.38 70.5666 241.41 69.8398L244.827 65.3536L244.83 65.3502Z" fill="white"/>
</g>
<defs>
<clipPath id="clip0_0_5">
<rect width="259" height="74" fill="white"/>
</clipPath>
</defs>
</svg>
