<svg width="154" height="152" viewBox="0 0 154 152" fill="none" xmlns="http://www.w3.org/2000/svg">
<path opacity="0.2" d="M77 0C34.4751 0 0 34.0274 0 76C0 117.973 34.4751 152 77 152C119.525 152 154 117.973 154 76C154 34.0274 119.525 0 77 0ZM93.2552 59.363L93.3046 59.4118C101.128 67.4339 106.401 76.3906 109.433 86.7914C110.267 89.6514 109.517 91.6255 107.206 92.6509C106.627 92.909 106.047 93.0346 105.475 93.0346C104.987 93.0346 104.507 92.9439 104.047 92.7486C102.86 92.2603 101.92 91.193 101.333 89.6584C100.938 88.626 100.563 87.5657 100.202 86.5472C99.2696 83.9104 98.3013 81.1899 96.9797 78.7624C89.7638 65.5016 78.7881 56.6006 64.3704 52.3036C64.1938 52.2478 64.01 52.199 63.8262 52.1571C63.3315 52.0246 62.7661 51.8781 62.229 51.62C60.2855 50.6783 59.4444 48.9483 59.9179 46.8765C60.3844 44.8327 61.8898 43.6677 64.0595 43.6677C64.0948 43.6677 64.1231 43.6677 64.1584 43.6677C64.9005 43.6817 65.5931 43.87 66.208 44.0444C75.9823 46.744 85.064 51.8921 93.241 59.356L93.2552 59.363ZM97.9621 93.9135C97.4391 94.8413 96.5486 95.4831 95.3754 95.783C95.0362 95.8667 94.6263 95.9365 94.1881 95.9365C92.711 95.9365 90.8805 95.1831 89.9052 91.8906C87.9475 85.3125 84.6823 79.6692 80.2157 75.135L80.1804 75.1001C75.0282 69.4219 68.7028 65.5504 60.8367 63.2624C56.3277 61.951 56.6669 58.9863 57.0274 57.7726C57.3595 56.6495 58.0168 55.7915 58.9426 55.3032C60.0805 54.7033 61.5435 54.6684 63.2962 55.2055C80.8164 60.5838 92.5131 72.1006 98.0752 89.4352C98.6547 91.2488 98.6194 92.7626 97.9692 93.9275L97.9621 93.9135ZM33.5422 68.5849C33.5422 71.0961 31.4714 73.133 28.9342 73.133C27.7045 73.133 26.5454 72.6587 25.6761 71.8006C24.8068 70.9426 24.3262 69.7986 24.3262 68.5849V28.5584C24.3262 27.3447 24.7997 26.2076 25.669 25.3496C26.5525 24.4777 27.7115 24.0103 28.9342 24.0103H69.4873C72.0316 24.0103 74.0953 26.0542 74.0953 28.5584C74.0953 29.7722 73.6147 30.9162 72.7454 31.7742C71.8761 32.6322 70.717 33.1066 69.4873 33.1066H33.5422V68.5779V68.5849ZM75.2826 99.9196C74.7525 100.778 73.9115 101.357 72.8443 101.608C72.4274 101.705 72.0316 101.754 71.6499 101.754C69.7559 101.754 68.307 100.582 67.5932 98.4198C65.374 91.7441 60.971 87.4471 54.1297 85.2707C51.7056 84.4964 50.5536 82.606 51.0483 80.2133C51.2744 79.1321 51.9105 78.2183 52.8434 77.6463C53.8965 77.0045 55.211 76.851 56.5468 77.1998C60.8438 78.3369 65.0843 80.6458 68.1798 83.5337L68.2505 83.6035C72.4062 88.1237 74.6253 91.8208 75.6642 95.9504C76.053 97.506 75.9187 98.8872 75.2755 99.9266L75.2826 99.9196ZM57.7129 74.3328C53.4159 73.0423 53.7127 70.1544 54.0378 68.9685C54.3488 67.8454 54.999 66.9805 55.9248 66.4712C57.0627 65.8434 58.5186 65.7806 60.243 66.2829C66.4695 68.0966 71.8337 71.2565 77.1131 76.2511L77.1343 76.272C80.4772 79.5785 84.8944 85.1242 86.9369 92.7556C87.7213 95.6784 86.6895 97.9455 84.2441 98.6779C83.7918 98.8105 83.3536 98.8802 82.9367 98.8802C81.0638 98.8802 79.5443 97.5618 78.7315 95.1692C75.0423 84.2871 68.1727 77.4719 57.72 74.3398L57.7129 74.3328ZM129.667 123.442C129.667 124.648 129.193 125.792 128.324 126.65C127.433 127.522 126.281 127.99 125.052 127.99H84.4986C81.9543 127.99 79.8906 125.946 79.8906 123.442C79.8906 122.228 80.3712 121.084 81.2405 120.219C82.1098 119.361 83.2688 118.886 84.4986 118.886H120.437V83.4151C120.437 80.9039 122.507 78.867 125.045 78.867C126.274 78.867 127.433 79.3414 128.303 80.1994C129.172 81.0574 129.653 82.2014 129.653 83.4151V123.442H129.667Z" fill="white"/>
</svg>
